<svg xmlns="http://www.w3.org/2000/svg" fill="none" viewBox="0 0 10 8"><path fill="#BC9CFF" d="M4.93 7.887l-.605-.547A80.924 80.924 0 0 1 2.82 5.953c-.313-.3-.664-.67-1.055-1.113-.377-.443-.638-.84-.781-1.192A3.021 3.021 0 0 1 .77 2.535c0-.638.215-1.178.645-1.62.442-.444.99-.665 1.64-.665.755 0 1.38.293 1.875.879C5.425.543 6.05.25 6.805.25c.651 0 1.192.221 1.621.664.443.443.664.983.664 1.621 0 .508-.169 1.035-.507 1.582a7.84 7.84 0 0 1-1.114 1.426c-.39.404-1.035 1.01-1.933 1.816l-.606.528z"/></svg>