<svg xmlns="http://www.w3.org/2000/svg" fill="none" viewBox="0 0 106 40"><path fill="#1F2041" d="M62.335 13.368c.222 0 .402.076.542.227.152.14.228.321.228.543a.74.74 0 0 1-.227.543.705.705 0 0 1-.543.227h-3.763v10.5a.761.761 0 0 1-.227.56c-.14.14-.32.21-.542.21-.21 0-.391-.07-.543-.21a.761.761 0 0 1-.227-.56v-10.5H53.27a.74.74 0 0 1-.543-.227.74.74 0 0 1-.227-.543c0-.222.076-.402.227-.543a.74.74 0 0 1 .543-.227h9.065zM68.908 13.368c.886 0 1.72.17 2.502.508.793.338 1.482.799 2.065 1.382a6.343 6.343 0 0 1 1.4 2.065c.338.782.508 1.616.508 2.503a6.259 6.259 0 0 1-.665 2.87 6.498 6.498 0 0 1-1.803 2.204l-.035.036c-.56.42-1.172.752-1.837.997a6.404 6.404 0 0 1-2.135.35c-.887 0-1.721-.17-2.503-.508a6.753 6.753 0 0 1-2.065-1.382 6.536 6.536 0 0 1-1.382-2.047 6.276 6.276 0 0 1-.508-2.52c0-.98.198-1.885.595-2.713.397-.84.94-1.557 1.628-2.152l.07-.07c.011 0 .029-.012.052-.036a6.334 6.334 0 0 1 1.89-1.085c.7-.268 1.44-.402 2.223-.402zm0 11.375c.443 0 .863-.052 1.26-.157a5.586 5.586 0 0 0 1.155-.473L65.18 16.64a4.916 4.916 0 0 0-.875 1.47 4.664 4.664 0 0 0-.315 1.716c0 .676.128 1.312.385 1.907s.607 1.12 1.05 1.575c.455.443.98.793 1.575 1.05s1.23.385 1.908.385zm3.622-1.592c.408-.444.724-.945.945-1.506.234-.571.35-1.178.35-1.82a4.813 4.813 0 0 0-1.453-3.465 4.813 4.813 0 0 0-3.464-1.452c-.467 0-.916.064-1.348.193a4.462 4.462 0 0 0-1.207.524l6.177 7.526zM82.351 20.63a.762.762 0 0 1-.595-.28l-4.498-5.775a.714.714 0 0 1-.157-.542.722.722 0 0 1 .28-.508.658.658 0 0 1 .543-.14c.21.024.379.117.507.28l3.92 5.006 3.832-4.918a.709.709 0 0 1 .49-.28c.21-.023.397.03.56.157a.721.721 0 0 1 .28.508.713.713 0 0 1-.157.543l-4.41 5.67a.73.73 0 0 1-.595.28zm4.918 5.636a1.572 1.572 0 0 1-.56-.105 3.865 3.865 0 0 1-.42-.228 2.376 2.376 0 0 1-.42-.42L82.35 20.98l-3.832 4.936a.721.721 0 0 1-.508.28.714.714 0 0 1-.542-.158.709.709 0 0 1-.28-.49.741.741 0 0 1 .157-.56l4.41-5.67a.682.682 0 0 1 .578-.28c.256 0 .46.093.612.28l4.095 5.25c.058.082.11.134.157.157l.106.053c.198 0 .361.07.49.21.14.128.215.292.227.49a.657.657 0 0 1-.175.542.744.744 0 0 1-.525.245h-.052zM91.734 26.265a.761.761 0 0 1-.56-.227.761.761 0 0 1-.227-.56V14.103c0-.21.076-.39.227-.543a.761.761 0 0 1 .56-.227c.21 0 .391.076.543.227a.74.74 0 0 1 .227.543v11.375a.761.761 0 0 1-.227.56.74.74 0 0 1-.543.227zM104.938 26.23a.685.685 0 0 1-.595-.297l-7.298-9.59v9.135a.74.74 0 0 1-.227.542.712.712 0 0 1-.525.21.75.75 0 0 1-.753-.752V14.12c0-.163.047-.309.14-.437a.697.697 0 0 1 .385-.262.678.678 0 0 1 .455-.018.79.79 0 0 1 .385.262l7.28 9.608v-9.152c0-.199.07-.374.21-.526a.742.742 0 0 1 .543-.227c.21 0 .385.076.525.227a.723.723 0 0 1 .227.525v11.358c0 .163-.047.31-.14.438a.799.799 0 0 1-.367.28 1.492 1.492 0 0 1-.245.034z"/><path fill="url(#paint0_linear)" d="M20 27.059a1.18 1.18 0 0 1-1.176-1.177c0-4.53-3.706-8.235-8.235-8.235a1.18 1.18 0 0 1-1.177-1.177c0-.647.53-1.176 1.177-1.176a10.582 10.582 0 0 1 10.588 10.588A1.18 1.18 0 0 1 20 27.06z"/><path fill="url(#paint1_linear)" d="M30.588 16.47a1.18 1.18 0 0 1-1.176 1.177 8.21 8.21 0 0 0-6.765 3.559 12.044 12.044 0 0 0-1.176-2.294 10.49 10.49 0 0 1 7.94-3.618c.648 0 1.177.53 1.177 1.176z"/><path fill="url(#paint2_linear)" d="M20 40C8.97 40 0 31.03 0 20S8.97 0 20 0s20 8.97 20 20-8.97 20-20 20zm0-37.647C10.265 2.353 2.353 10.265 2.353 20S10.265 37.647 20 37.647 37.647 29.735 37.647 20 29.735 2.353 20 2.353z"/><defs><linearGradient id="paint0_linear" x1="15.294" x2="15.294" y1="15.294" y2="27.059" gradientUnits="userSpaceOnUse"><stop stop-color="#BC9CFF"/><stop offset="1" stop-color="#8BA4F9"/></linearGradient><linearGradient id="paint1_linear" x1="26.029" x2="26.029" y1="15.294" y2="21.206" gradientUnits="userSpaceOnUse"><stop stop-color="#6FCF97"/><stop offset="1" stop-color="#66D2EA"/></linearGradient><linearGradient id="paint2_linear" x1="20" x2="20" y1="0" y2="40" gradientUnits="userSpaceOnUse"><stop stop-color="#BC9CFF"/><stop offset="1" stop-color="#8BA4F9"/></linearGradient></defs></svg>